<?xml version="1.0" encoding="utf-8"?>
<!-- Generator: Adobe Illustrator 24.2.1, SVG Export Plug-In . SVG Version: 6.00 Build 0)  -->
<svg version="1.1" xmlns="http://www.w3.org/2000/svg" xmlns:xlink="http://www.w3.org/1999/xlink" x="0px" y="0px"
	 viewBox="0 0 125 125" style="enable-background:new 0 0 125 125;" xml:space="preserve">
<style type="text/css">
	.st0{fill:#009245;}
	.st1{fill:#FFFFFF;}
</style>
<g id="Слой_1">
	<g>
		<path class="st0" d="M62.5,125h-52C4.7,125,0,120.3,0,114.5l0-52C0,27.98,27.98,0,62.5,0l52,0c5.8,0,10.5,4.7,10.5,10.5v52
			C125,97.02,97.02,125,62.5,125z"/>
	</g>
</g>
<g id="Слой_2">
	<path class="st1" d="M102.26,17.54l-11.43,2.08c-0.09-0.57-0.38-1.13-0.85-1.61c-0.57-0.47-1.23-0.66-1.89-0.47l-20.78,3.78
		L64.2,18.2c-0.57-0.57-1.42-0.85-2.17-0.66l-40.14,9.44C20.76,27.26,20,28.21,20,29.34v61.39c0,1.13,0.85,2.08,1.98,2.36
		l51.94,9.44c0.09,0,0.28,0,0.38,0c0.57,0,1.04-0.19,1.51-0.57c0.47-0.38,0.76-0.94,0.85-1.61l11.43,2.17c0.09,0,0.28,0,0.38,0
		c0.57,0,1.04-0.19,1.51-0.57c0.47-0.38,0.76-0.94,0.85-1.61l11.43,2.17c0.09,0,0.28,0,0.38,0c0.57,0,1.04-0.19,1.51-0.57
		c0.57-0.47,0.85-1.13,0.85-1.79V19.9c0-0.66-0.28-1.32-0.85-1.79C103.58,17.63,102.92,17.44,102.26,17.54z M62.5,23.2l8.5,8.5h-8.5
		V23.2z M71.94,97.34l-47.22-8.59V31.23l33.06-7.74v10.67c0,1.32,1.04,2.36,2.36,2.36h11.81V97.34z M86.11,97.34l-9.44-1.7V31.7
		c0-0.66-0.28-1.23-0.66-1.7l-4.63-4.63l14.73-2.64V97.34z M100.28,97.34l-9.44-1.7V24.43l9.44-1.7V97.34z"/>
	<path class="st1" d="M64.86,50.59H31.81c-1.32,0-2.36,1.04-2.36,2.36s1.04,2.36,2.36,2.36h33.06c1.32,0,2.36-1.04,2.36-2.36
		S66.18,50.59,64.86,50.59z"/>
	<path class="st1" d="M29.44,43.6c0,1.23,1.13,2.27,2.36,2.27h0.09l33.06-1.23c1.32,0,2.36-1.13,2.27-2.46
		c-0.09-1.32-1.13-2.36-2.46-2.27l-33.06,1.23C30.39,41.24,29.44,42.28,29.44,43.6z"/>
	<path class="st1" d="M64.96,61.26L31.9,60.04c-1.32-0.09-2.36,0.94-2.46,2.27s0.94,2.36,2.27,2.46l33.06,1.23h0.09
		c1.23,0,2.27-1.04,2.36-2.27C67.22,62.4,66.28,61.26,64.96,61.26z"/>
	<path class="st1" d="M65.05,71.84l-33.06-2.36c-1.32-0.09-2.46,0.85-2.55,2.17c-0.09,1.32,0.85,2.46,2.17,2.55l33.06,2.36
		c0.09,0,0.09,0,0.19,0c1.23,0,2.27-0.94,2.36-2.17C67.32,73.07,66.37,71.94,65.05,71.84z"/>
	<path class="st1" d="M65.14,82.51l-33.06-3.59c-1.32-0.09-2.46,0.76-2.64,2.08c-0.19,1.32,0.76,2.46,2.08,2.64l33.06,3.59
		c0.09,0,0.19,0,0.28,0c1.23,0,2.17-0.94,2.36-2.08C67.32,83.74,66.37,82.61,65.14,82.51z"/>
</g>
</svg>
