<?xml version="1.0" encoding="utf-8"?>
<!-- Generator: Adobe Illustrator 24.2.1, SVG Export Plug-In . SVG Version: 6.00 Build 0)  -->
<svg version="1.1" xmlns="http://www.w3.org/2000/svg" xmlns:xlink="http://www.w3.org/1999/xlink" x="0px" y="0px"
	 viewBox="0 0 125 125" style="enable-background:new 0 0 125 125;" xml:space="preserve">
<style type="text/css">
	.st0{fill:#009245;}
	.st1{fill:#FFFFFF;}
</style>
<g id="Слой_1">
	<g>
		<path class="st0" d="M62.5,125h-52C4.7,125,0,120.3,0,114.5l0-52C0,27.98,27.98,0,62.5,0l52,0c5.8,0,10.5,4.7,10.5,10.5v52
			C125,97.02,97.02,125,62.5,125z"/>
	</g>
</g>
<g id="Слой_2">
	<g>
		<path class="st1" d="M104.27,30.74L86.97,13.45c-0.52-0.52-1.15-0.73-1.78-0.73H47.04c-1.36,0-2.52,1.15-2.52,2.52v9.75h-9.75
			c-1.36,0-2.52,1.15-2.52,2.52v9.75h-9.75c-1.36,0-2.52,1.15-2.52,2.52v70.01c0,1.36,1.15,2.52,2.52,2.52h55.44
			c1.36,0,2.52-1.15,2.52-2.52v-9.75h9.75c1.36,0,2.52-1.15,2.52-2.52v-9.75h9.75c1.36,0,2.52-1.15,2.52-2.52V32.52
			C105,31.9,104.79,31.27,104.27,30.74z M85.61,19.21L98.5,32.11H85.61V19.21z M75.44,107.15H25.14V42.27h7.13v55.23
			c0,1.36,1.15,2.52,2.52,2.52h40.67C75.44,100.02,75.44,107.15,75.44,107.15z M87.71,94.99H37.4V30.01h7.13v55.23
			c0,1.36,1.15,2.52,2.52,2.52h40.67V94.99z M49.66,82.73V17.85h30.92v16.87c0,1.36,1.15,2.52,2.52,2.52h16.87v45.49H49.66z"/>
		<path class="st1" d="M90.43,44.79H59.2c-1.36,0-2.52,1.15-2.52,2.52c0,1.36,1.15,2.52,2.52,2.52h31.23c1.36,0,2.52-1.15,2.52-2.52
			C92.95,45.94,91.79,44.79,90.43,44.79z"/>
		<path class="st1" d="M90.43,57.47H59.2c-1.36,0-2.52,1.15-2.52,2.52s1.15,2.52,2.52,2.52h31.23c1.36,0,2.52-1.15,2.52-2.52
			S91.79,57.47,90.43,57.47z"/>
		<path class="st1" d="M90.43,70.05H59.2c-1.36,0-2.52,1.15-2.52,2.52c0,1.36,1.15,2.52,2.52,2.52h31.23c1.36,0,2.52-1.15,2.52-2.52
			S91.79,70.05,90.43,70.05z"/>
	</g>
</g>
</svg>
