<?xml version="1.0" encoding="utf-8"?>
<!-- Generator: Adobe Illustrator 24.2.1, SVG Export Plug-In . SVG Version: 6.00 Build 0)  -->
<svg version="1.1" xmlns="http://www.w3.org/2000/svg" xmlns:xlink="http://www.w3.org/1999/xlink" x="0px" y="0px"
	 viewBox="0 0 125 125" style="enable-background:new 0 0 125 125;" xml:space="preserve">
<style type="text/css">
	.st0{fill:#009245;}
	.st1{fill:#FFFFFF;stroke:#FFFFFF;stroke-miterlimit:10;}
</style>
<g id="Слой_1">
	<g>
		<path class="st0" d="M62.5,125h-52C4.7,125,0,120.3,0,114.5l0-52C0,27.98,27.98,0,62.5,0l52,0c5.8,0,10.5,4.7,10.5,10.5v52
			C125,97.02,97.02,125,62.5,125z"/>
	</g>
</g>
<g id="Слой_2">
	<path class="st1" d="M43.5,59.33h38c0.66,0,1.25-0.41,1.49-1.03c0.23-0.62,0.05-1.32-0.45-1.75l-11.08-9.5l-2.06,2.41l7.83,6.71
		H43.5V59.33z"/>
	<path class="st1" d="M42.01,66.7c-0.23,0.62-0.05,1.32,0.45,1.75l11.08,9.5l2.06-2.41l-7.83-6.71H81.5v-3.17h-38
		C42.84,65.67,42.25,66.08,42.01,66.7z"/>
	<path class="st1" d="M92.58,49.83c9.6,0,17.42-7.81,17.42-17.42S102.19,15,92.58,15s-17.42,7.81-17.42,17.42
		S82.98,49.83,92.58,49.83z M92.58,18.17c7.86,0,14.25,6.39,14.25,14.25s-6.39,14.25-14.25,14.25s-14.25-6.39-14.25-14.25
		S84.73,18.17,92.58,18.17z"/>
	<path class="st1" d="M32.42,110c9.6,0,17.42-7.81,17.42-17.42s-7.81-17.42-17.42-17.42S15,82.98,15,92.58S22.81,110,32.42,110z
		 M32.42,78.33c7.86,0,14.25,6.39,14.25,14.25s-6.39,14.25-14.25,14.25s-14.25-6.39-14.25-14.25S24.56,78.33,32.42,78.33z"/>
	<path class="st1" d="M47.76,107.67c4.74,1.55,9.7,2.33,14.74,2.33c26.19,0,47.5-21.31,47.5-47.5c0-5.04-0.79-10-2.33-14.74
		l-3.01,0.98c1.44,4.43,2.18,9.06,2.18,13.76c0,24.45-19.89,44.33-44.33,44.33c-4.7,0-9.33-0.73-13.76-2.18L47.76,107.67z"/>
	<path class="st1" d="M20.34,76.26c-1.45-4.43-2.18-9.06-2.18-13.76c0-24.45,19.89-44.33,44.33-44.33c4.7,0,9.33,0.73,13.76,2.18
		l0.98-3.01C72.5,15.79,67.54,15,62.5,15C36.31,15,15,36.31,15,62.5c0,5.04,0.79,10,2.33,14.74L20.34,76.26z"/>
	<path class="st1" d="M87.83,38.75h9.5c0.87,0,1.58-0.71,1.58-1.58v-9.5c0-0.87-0.71-1.58-1.58-1.58h-9.5
		c-0.87,0-1.58,0.71-1.58,1.58v9.5C86.25,38.04,86.96,38.75,87.83,38.75z M89.42,29.25h6.33v6.33h-6.33V29.25z"/>
	<path class="st1" d="M27.67,98.92h9.5c0.87,0,1.58-0.71,1.58-1.58v-9.5c0-0.87-0.71-1.58-1.58-1.58h-9.5
		c-0.87,0-1.58,0.71-1.58,1.58v9.5C26.08,98.21,26.79,98.92,27.67,98.92z M29.25,89.42h6.33v6.33h-6.33V89.42z"/>
</g>
</svg>
