<?xml version="1.0" encoding="utf-8"?>
<!-- Generator: Adobe Illustrator 24.2.1, SVG Export Plug-In . SVG Version: 6.00 Build 0)  -->
<svg version="1.1" xmlns="http://www.w3.org/2000/svg" xmlns:xlink="http://www.w3.org/1999/xlink" x="0px" y="0px"
	 viewBox="0 0 125 125" style="enable-background:new 0 0 125 125;" xml:space="preserve">
<style type="text/css">
	.st0{fill:#009245;}
	.st1{fill:#FFFFFF;}
</style>
<g id="Слой_1">
	<g>
		<path class="st0" d="M62.5,125h-52C4.7,125,0,120.3,0,114.5l0-52C0,27.98,27.98,0,62.5,0l52,0c5.8,0,10.5,4.7,10.5,10.5v52
			C125,97.02,97.02,125,62.5,125z"/>
	</g>
</g>
<g id="Слой_2">
	<g>
		<path class="st1" d="M44.55,110c-0.67,0-1.33-0.17-1.92-0.49c-1.33-0.71-2.16-2.09-2.17-3.6V93.64C29.16,93.64,20,84.48,20,73.18
			V40.45C20,29.16,29.16,20,40.45,20h49.09c11.3,0,20.45,9.16,20.45,20.45v32.73c0,11.3-9.16,20.45-20.45,20.45H70.32L46.8,109.3
			C46.13,109.75,45.35,109.99,44.55,110z M40.45,28.18c-6.78,0-12.27,5.49-12.27,12.27v32.73c0,6.78,5.49,12.27,12.27,12.27h4.09
			c2.26,0,4.09,1.83,4.09,4.09v8.71l18.2-12.27c0.68-0.39,1.46-0.57,2.25-0.53h20.45c6.78,0,12.27-5.49,12.27-12.27V40.45
			c0-6.78-5.49-12.27-12.27-12.27H40.45z"/>
	</g>
</g>
</svg>
