<?xml version="1.0" encoding="utf-8"?>
<!-- Generator: Adobe Illustrator 24.2.1, SVG Export Plug-In . SVG Version: 6.00 Build 0)  -->
<svg version="1.1" xmlns="http://www.w3.org/2000/svg" xmlns:xlink="http://www.w3.org/1999/xlink" x="0px" y="0px"
	 viewBox="0 0 125 125" style="enable-background:new 0 0 125 125;" xml:space="preserve">
<style type="text/css">
	.st0{fill:#009245;}
	.st1{fill:#FFFFFF;}
</style>
<g id="Слой_1">
	<g>
		<path class="st0" d="M62.5,125h-52C4.7,125,0,120.3,0,114.5l0-52C0,27.98,27.98,0,62.5,0l52,0c5.8,0,10.5,4.7,10.5,10.5v52
			C125,97.02,97.02,125,62.5,125z"/>
	</g>
</g>
<g id="Слой_2">
	<g>
		<g>
			<path class="st1" d="M97,13.06c-54.03,0.02-51.32-0.22-52.01,0.44c-0.29,0.29-21.13,21.02-20.98,20.87
				c-1.06,1.34-0.12-1.48-0.44,73.09c0,0.83,0.67,1.5,1.5,1.5H97c0.83,0,1.5-0.67,1.5-1.5v-92.9C98.5,13.73,97.83,13.06,97,13.06z
				 M44.56,18.17v15.77H28.71L44.56,18.17z M95.5,105.97H26.57V36.93h19.48c0.83,0,1.5-0.67,1.5-1.5V16.06H95.5V105.97z"/>
		</g>
		<g>
			<path class="st1" d="M62.54,24.94h23.98c0.83,0,1.5-0.67,1.5-1.5s-0.67-1.5-1.5-1.5H62.54c-0.83,0-1.5,0.67-1.5,1.5
				S61.71,24.94,62.54,24.94z"/>
		</g>
		<g>
			<path class="st1" d="M62.54,32.44h23.98c0.83,0,1.5-0.67,1.5-1.5s-0.67-1.5-1.5-1.5H62.54c-0.83,0-1.5,0.67-1.5,1.5
				S61.71,32.44,62.54,32.44z"/>
		</g>
		<g>
			<path class="st1" d="M62.54,39.93h11.99c0.83,0,1.5-0.67,1.5-1.5s-0.67-1.5-1.5-1.5H62.54c-0.83,0-1.5,0.67-1.5,1.5
				S61.71,39.93,62.54,39.93z"/>
		</g>
		<g>
			<path class="st1" d="M32.57,44.42c0,0.83,0.67,1.5,1.5,1.5h19.48c0.83,0,1.5-0.67,1.5-1.5s-0.67-1.5-1.5-1.5H34.07
				C33.24,42.92,32.57,43.59,32.57,44.42z"/>
		</g>
		<g>
			<path class="st1" d="M53.55,50.42H34.07c-0.83,0-1.5,0.67-1.5,1.5s0.67,1.5,1.5,1.5h19.48c0.83,0,1.5-0.67,1.5-1.5
				S54.37,50.42,53.55,50.42z"/>
		</g>
		<g>
			<path class="st1" d="M53.55,57.91H34.07c-0.83,0-1.5,0.67-1.5,1.5s0.67,1.5,1.5,1.5h19.48c0.83,0,1.5-0.67,1.5-1.5
				S54.37,57.91,53.55,57.91z"/>
		</g>
		<g>
			<path class="st1" d="M53.55,65.4H34.07c-0.83,0-1.5,0.67-1.5,1.5s0.67,1.5,1.5,1.5h19.48c0.83,0,1.5-0.67,1.5-1.5
				S54.37,65.4,53.55,65.4z"/>
		</g>
		<g>
			<path class="st1" d="M46.05,72.89H34.07c-0.83,0-1.5,0.67-1.5,1.5c0,0.83,0.67,1.5,1.5,1.5h11.99c0.83,0,1.5-0.67,1.5-1.5
				C47.55,73.56,46.88,72.89,46.05,72.89z"/>
		</g>
		<g>
			<path class="st1" d="M53.55,98.37H35.56V81.88c0-0.83-0.67-1.5-1.5-1.5c-0.83,0-1.5,0.67-1.5,1.5v17.98c0,0.83,0.67,1.5,1.5,1.5
				h19.48c0.83,0,1.5-0.67,1.5-1.5C55.04,99.04,54.37,98.37,53.55,98.37z"/>
		</g>
		<g>
			<path class="st1" d="M44.12,88.32c-0.59-0.59-1.53-0.59-2.12,0l-3,3c-0.59,0.59-0.59,1.53,0,2.12c0.29,0.29,0.68,0.44,1.06,0.44
				c0.38,0,0.77-0.15,1.06-0.44l1.94-1.94l1.94,1.94c0.3,0.3,0.7,0.46,1.13,0.44c0.42-0.02,0.81-0.21,1.08-0.54l7.49-8.99
				c0.53-0.64,0.44-1.58-0.19-2.11c-0.64-0.53-1.58-0.44-2.11,0.19l-6.44,7.73L44.12,88.32z"/>
		</g>
		<g>
			<path class="st1" d="M71.53,72.51c5.78,0,10.49-4.71,10.49-10.49c1.33-0.2,4.5,0.73,4.5-1.5c0-7.44-6.05-13.49-13.49-13.49
				c-0.83,0-1.5,0.67-1.5,1.5v3c-5.78,0-10.49,4.71-10.49,10.49S65.74,72.51,71.53,72.51z M74.52,50.14
				c4.59,0.66,8.22,4.3,8.88,8.88c-0.32,0-9.04,0-8.88,0C74.52,58.69,74.52,49.67,74.52,50.14z M71.53,54.53
				c0.34,3.78-0.98,7.49,1.5,7.49h5.99c0,4.13-3.36,7.49-7.49,7.49c-4.13,0-7.49-3.36-7.49-7.49S67.4,54.53,71.53,54.53z"/>
		</g>
		<g>
			<path class="st1" d="M62.54,86.38h23.98c0.83,0,1.5-0.67,1.5-1.5c0-0.83-0.67-1.5-1.5-1.5H62.54c-0.83,0-1.5,0.67-1.5,1.5
				C61.04,85.71,61.71,86.38,62.54,86.38z"/>
		</g>
		<g>
			<path class="st1" d="M62.54,93.87h23.98c0.83,0,1.5-0.67,1.5-1.5c0-0.83-0.67-1.5-1.5-1.5H62.54c-0.83,0-1.5,0.67-1.5,1.5
				C61.04,93.2,61.71,93.87,62.54,93.87z"/>
		</g>
		<g>
			<path class="st1" d="M62.54,101.36h23.98c0.83,0,1.5-0.67,1.5-1.5c0-0.83-0.67-1.5-1.5-1.5H62.54c-0.83,0-1.5,0.67-1.5,1.5
				C61.04,100.69,61.71,101.36,62.54,101.36z"/>
		</g>
	</g>
</g>
</svg>
