<?xml version="1.0" encoding="utf-8"?>
<!-- Generator: Adobe Illustrator 24.2.1, SVG Export Plug-In . SVG Version: 6.00 Build 0)  -->
<svg version="1.1" xmlns="http://www.w3.org/2000/svg" xmlns:xlink="http://www.w3.org/1999/xlink" x="0px" y="0px"
	 viewBox="0 0 125 125" style="enable-background:new 0 0 125 125;" xml:space="preserve">
<style type="text/css">
	.st0{fill:#009245;}
	.st1{fill:#FFFFFF;}
</style>
<g id="Слой_1">
	<g>
		<path class="st0" d="M62.5,125h-52C4.7,125,0,120.3,0,114.5l0-52C0,27.98,27.98,0,62.5,0l52,0c5.8,0,10.5,4.7,10.5,10.5v52
			C125,97.02,97.02,125,62.5,125z"/>
	</g>
</g>
<g id="Слой_2">
	<g>
		<g>
			<path class="st1" d="M78.02,105.59c-2.2-2.22-3.59-5.03-4.03-8.06H33.43c-1.15,0-2.07-0.93-2.07-2.07V22.22
				c0-1.15,0.93-2.07,2.07-2.07h66.99c1.15,0,2.07,0.93,2.07,2.07v73.24c0,7.9-6.43,14.33-14.33,14.33
				C84.36,109.79,80.77,108.3,78.02,105.59z M35.51,24.3v69.09h40.41c1.15,0,2.07,0.93,2.07,2.07c0,2.71,1.06,5.27,2.97,7.2
				c1.94,1.92,4.51,2.98,7.21,2.98c5.61,0,10.18-4.57,10.18-10.18V24.3H35.51z"/>
		</g>
		<g>
			<path class="st1" d="M17.5,95.45c0-1.15,0.93-2.07,2.07-2.07h56.34c1.15,0,2.07,0.93,2.07,2.07c0,5.61,4.57,10.18,10.18,10.18
				c1.15,0,2.07,0.93,2.07,2.07c0,1.15-0.93,2.07-2.07,2.07H31.83C23.93,109.78,17.5,103.35,17.5,95.45z M73.99,97.53H21.86
				c0.96,4.62,5.06,8.11,9.97,8.11h46.26C75.93,103.49,74.45,100.67,73.99,97.53z"/>
		</g>
		<g>
			<path class="st1" d="M54.92,22.22c0-6.62,5.39-12.01,12.01-12.01s12.01,5.39,12.01,12.01c0,1.15-0.93,2.07-2.07,2.07H56.99
				C55.85,24.3,54.92,23.37,54.92,22.22z M66.93,14.36c-3.62,0-6.67,2.46-7.59,5.79h15.17C73.6,16.82,70.55,14.36,66.93,14.36z"/>
		</g>
		<g>
			<path class="st1" d="M47.5,32.59c0-1.15,0.93-2.07,2.07-2.07h34.71c1.15,0,2.07,0.93,2.07,2.07c0,1.15-0.93,2.07-2.07,2.07H49.58
				C48.43,34.67,47.5,33.74,47.5,32.59z"/>
		</g>
		<g>
			<path class="st1" d="M51.84,45.72c0-1.15,0.93-2.07,2.07-2.07h26.04c1.15,0,2.07,0.93,2.07,2.07c0,1.15-0.93,2.07-2.07,2.07
				H53.91C52.76,47.79,51.84,46.86,51.84,45.72z"/>
		</g>
		<g>
			<path class="st1" d="M47.5,58.84c0-1.15,0.93-2.07,2.07-2.07h34.71c1.15,0,2.07,0.93,2.07,2.07s-0.93,2.07-2.07,2.07H49.58
				C48.43,60.91,47.5,59.98,47.5,58.84z"/>
		</g>
		<g>
			<path class="st1" d="M51.84,71.96c0-1.15,0.93-2.07,2.07-2.07h26.04c1.15,0,2.07,0.93,2.07,2.07s-0.93,2.07-2.07,2.07H53.91
				C52.76,74.03,51.84,73.1,51.84,71.96z"/>
		</g>
		<g>
			<path class="st1" d="M47.5,85.08c0-1.15,0.93-2.07,2.07-2.07h34.71c1.15,0,2.07,0.93,2.07,2.07s-0.93,2.07-2.07,2.07H49.58
				C48.43,87.15,47.5,86.22,47.5,85.08z"/>
		</g>
	</g>
</g>
</svg>
