<?xml version="1.0" encoding="utf-8"?>
<!-- Generator: Adobe Illustrator 24.2.1, SVG Export Plug-In . SVG Version: 6.00 Build 0)  -->
<svg version="1.1" xmlns="http://www.w3.org/2000/svg" xmlns:xlink="http://www.w3.org/1999/xlink" x="0px" y="0px"
	 viewBox="0 0 125 125" style="enable-background:new 0 0 125 125;" xml:space="preserve">
<style type="text/css">
	.st0{fill:#009245;}
	.st1{fill:#FFFFFF;}
	.st2{fill:#FFFFFF;stroke:#FFFFFF;stroke-miterlimit:10;}
</style>
<g id="Слой_1">
	<g>
		<path class="st0" d="M62.5,125h-52C4.7,125,0,120.3,0,114.5l0-52C0,27.98,27.98,0,62.5,0l52,0c5.8,0,10.5,4.7,10.5,10.5v52
			C125,97.02,97.02,125,62.5,125z"/>
	</g>
</g>
<g id="Слой_2">
	<g>
		<rect x="56.49" y="67.99" class="st1" width="30.46" height="2.04"/>
		<rect x="56.49" y="73.11" class="st1" width="30.46" height="2.04"/>
		<rect x="56.49" y="86.31" class="st1" width="30.46" height="2.04"/>
		<rect x="56.49" y="91.43" class="st1" width="30.46" height="2.04"/>
		<path class="st1" d="M45.78,63.76v6.23h6.23C52.01,66.55,49.22,63.76,45.78,63.76z"/>
		<path class="st1" d="M45.78,82.08v6.23h6.23C52.01,84.87,49.22,82.08,45.78,82.08z"/>
		<path class="st1" d="M50.16,56.13c7.37,0,13.34-5.97,13.34-13.34H50.16V29.45c-7.37,0-13.34,5.97-13.34,13.34
			S42.8,56.13,50.16,56.13z M47.25,32.78v10.01v2.92h2.92h10.01c-1.26,4.33-5.27,7.51-10.01,7.51c-5.75,0-10.42-4.68-10.42-10.42
			C39.74,38.05,42.91,34.04,47.25,32.78z"/>
		<path class="st1" d="M38.04,71.5c0,3.44,2.79,6.23,6.23,6.23c3.44,0,6.23-2.79,6.23-6.23h-6.23v-6.23
			C40.83,65.27,38.04,68.06,38.04,71.5z"/>
		<path class="st1" d="M44.27,83.58c-3.44,0-6.23,2.79-6.23,6.23c0,3.44,2.79,6.23,6.23,6.23c3.44,0,6.23-2.79,6.23-6.23h-6.23
			V83.58z"/>
		<path class="st1" d="M51.59,28.02v13.34h13.34C64.93,34,58.96,28.02,51.59,28.02z"/>
		<rect x="69.66" y="49.27" class="st1" width="2.04" height="4.69"/>
		<rect x="73.78" y="38.37" class="st1" width="2.04" height="15.59"/>
		<rect x="77.89" y="30.46" class="st1" width="2.04" height="23.51"/>
		<rect x="82.01" y="37.88" class="st1" width="2.04" height="16.09"/>
		<rect x="86.13" y="45.45" class="st1" width="2.04" height="8.51"/>
		<path class="st2" d="M34.45,109.17h56.09c3.84,0,6.95-3.11,6.95-6.95V22.79c0-3.84-3.11-6.95-6.95-6.95H34.45
			c-3.84,0-6.95,3.11-6.95,6.95v79.42C27.5,106.05,30.61,109.17,34.45,109.17z M29.54,22.79c0-2.71,2.2-4.91,4.91-4.91h56.09
			c2.71,0,4.91,2.2,4.91,4.91v79.42c0,2.71-2.2,4.91-4.91,4.91H34.45c-2.71,0-4.91-2.2-4.91-4.91V22.79z"/>
	</g>
</g>
</svg>
