<?xml version="1.0" encoding="utf-8"?>
<!-- Generator: Adobe Illustrator 24.2.1, SVG Export Plug-In . SVG Version: 6.00 Build 0)  -->
<svg version="1.1" xmlns="http://www.w3.org/2000/svg" xmlns:xlink="http://www.w3.org/1999/xlink" x="0px" y="0px"
	 viewBox="0 0 125 125" style="enable-background:new 0 0 125 125;" xml:space="preserve">
<style type="text/css">
	.st0{fill:#009245;}
	.st1{fill:#FFFFFF;}
</style>
<g id="Слой_1">
	<g>
		<path class="st0" d="M62.5,125h-52C4.7,125,0,120.3,0,114.5l0-52C0,27.98,27.98,0,62.5,0l52,0c5.8,0,10.5,4.7,10.5,10.5v52
			C125,97.02,97.02,125,62.5,125z"/>
	</g>
</g>
<g id="Слой_2">
	<g>
		<path class="st1" d="M102.5,23h-6c-0.83,0-1.5,0.67-1.5,1.5V32H60.5c0-4.14-3.36-7.5-7.5-7.5s-7.5,3.36-7.5,7.5H41v-6
			c0-1.66-1.34-3-3-3H23c-1.66,0-3,1.34-3,3v78c0,1.66,1.34,3,3,3h15c1.66,0,3-1.34,3-3v-6h7.5c0,2.49,2.01,4.5,4.5,4.5
			s4.5-2.01,4.5-4.5h45c4.14,0,7.5-3.36,7.5-7.5v-60C110,26.36,106.64,23,102.5,23z M98,26h4.5c2.49,0,4.5,2.01,4.5,4.5v54
			c-1.3-0.98-2.88-1.5-4.5-1.5H98V26z M54.92,90.5h-3.84l-2.25-6.74L53,81.68l4.17,2.08L54.92,90.5z M54.5,79.07V44h3v36.57
			L54.5,79.07z M51.5,79.07l-3,1.5V44h3V79.07z M57.5,41h-9v-1.5h9V41z M48.5,32c0-2.49,2.01-4.5,4.5-4.5s4.5,2.01,4.5,4.5v4.5h-9
			V32z M23,104V26h15v6h-4.5v3H38v6h-4.5v3H38v6h-4.5v3H38v6h-4.5v3H38v6h-4.5v3H38v6h-4.5v3H38v6h-4.5v3H38v6h-4.5v3H38v6H23z
			 M41,95V35h4.5v48c0,0.16,0.03,0.32,0.08,0.47l2.92,8.77V95H41z M54.5,98c0,0.83-0.67,1.5-1.5,1.5s-1.5-0.67-1.5-1.5v-4.5h3V98z
			 M102.5,95h-45v-2.76l2.92-8.77c0.05-0.15,0.08-0.31,0.08-0.47V35H95v49.5c0,0.83,0.67,1.5,1.5,1.5h6c2.49,0,4.5,2.01,4.5,4.5
			S104.99,95,102.5,95z"/>
		<path class="st1" d="M90.71,57.51l-4.02-0.57c-0.27-0.85-0.61-1.67-1.02-2.46l2.44-3.25c0.45-0.6,0.39-1.43-0.14-1.96l-4.24-4.24
			c-0.53-0.53-1.36-0.59-1.96-0.14l-3.25,2.44c-0.79-0.41-1.61-0.75-2.46-1.02l-0.57-4.02C75.38,41.55,74.75,41,74,41h-6
			c-0.75,0-1.38,0.55-1.49,1.29l-0.57,4.02c-1.17,0.38-2.29,0.88-3.34,1.51l1.53,2.58c1.1-0.66,2.29-1.15,3.54-1.47
			c0.59-0.15,1.03-0.64,1.11-1.24L69.3,44h3.4l0.53,3.69c0.09,0.6,0.53,1.09,1.11,1.24c1.24,0.32,2.43,0.81,3.54,1.47
			c0.52,0.31,1.18,0.27,1.67-0.09l2.99-2.24l2.4,2.4l-2.24,2.99c-0.36,0.49-0.4,1.14-0.09,1.67c0.66,1.1,1.15,2.29,1.46,3.53
			c0.15,0.59,0.64,1.03,1.24,1.12L89,60.3v3.4l-3.69,0.53c-0.6,0.09-1.09,0.53-1.24,1.12c-0.31,1.24-0.81,2.43-1.46,3.53
			c-0.31,0.52-0.27,1.18,0.09,1.67l2.24,2.99l-2.4,2.4l-2.98-2.24c-0.49-0.37-1.14-0.4-1.67-0.09c-1.1,0.66-2.29,1.15-3.54,1.47
			c-0.59,0.15-1.03,0.64-1.11,1.24L72.7,80h-3.4l-0.53-3.69c-0.09-0.6-0.53-1.09-1.11-1.24c-1.24-0.32-2.43-0.81-3.54-1.47
			l-1.52,2.58c1.06,0.63,2.18,1.13,3.35,1.51l0.57,4.02C66.63,82.45,67.26,83,68,83h6c0.75,0,1.38-0.55,1.49-1.29l0.57-4.02
			c0.85-0.27,1.67-0.61,2.46-1.02l3.25,2.44c0.6,0.45,1.43,0.39,1.96-0.14l4.24-4.24c0.53-0.53,0.59-1.36,0.14-1.96l-2.44-3.25
			c0.41-0.79,0.75-1.61,1.02-2.46l4.02-0.57C91.45,66.38,92,65.75,92,65v-6C92,58.25,91.45,57.62,90.71,57.51z"/>
		<path class="st1" d="M62,62c0,4.97,4.03,9,9,9s9-4.03,9-9s-4.03-9-9-9C66.03,53,62,57.03,62,62z M71,56c3.31,0,6,2.69,6,6
			c0,3.31-2.69,6-6,6s-6-2.69-6-6C65,58.69,67.69,56,71,56z"/>
	</g>
</g>
</svg>
