<?xml version="1.0" encoding="utf-8"?>
<!-- Generator: Adobe Illustrator 24.2.1, SVG Export Plug-In . SVG Version: 6.00 Build 0)  -->
<svg version="1.1" xmlns="http://www.w3.org/2000/svg" xmlns:xlink="http://www.w3.org/1999/xlink" x="0px" y="0px"
	 viewBox="0 0 125 125" style="enable-background:new 0 0 125 125;" xml:space="preserve">
<style type="text/css">
	.st0{fill:#009245;}
	.st1{fill:#FFFFFF;}
</style>
<g id="Слой_1">
	<g>
		<path class="st0" d="M62.5,125h-52C4.7,125,0,120.3,0,114.5l0-52C0,27.98,27.98,0,62.5,0l52,0c5.8,0,10.5,4.7,10.5,10.5v52
			C125,97.02,97.02,125,62.5,125z"/>
	</g>
</g>
<g id="Слой_2">
	<path class="st1" d="M52.59,60.66l24.15,24.15c1.75,1.17,4.12,0.7,5.29-1.05c0.83-1.24,0.86-2.86,0.07-4.13l-13.1-13.15
		l14.43-14.43c0.94-0.95,0.94-2.48,0-3.43l-3-3.25c-0.95-0.94-2.48-0.94-3.43,0L62.52,59.89l-4.62-4.62
		c1.68-4.6-0.69-9.69-5.28-11.37c-1.94-0.71-4.07-0.72-6.02-0.02l4.75,4.84c1.46,1.48,1.46,3.87,0,5.35l0,0
		c-1.49,1.49-3.9,1.49-5.39,0.01c0,0,0,0-0.01-0.01l-4.84-4.8c-1.7,4.59,0.64,9.69,5.23,11.39c1.99,0.74,4.17,0.74,6.16,0H52.59z"/>
	<path class="st1" d="M97.93,20.32H27.11c-3.9-0.02-7.08,3.12-7.11,7.02c0,0.01,0,0.03,0,0.04v70.23c0,3.9,3.16,7.07,7.07,7.07
		h70.87c3.9,0,7.07-3.16,7.07-7.07V27.39C105,23.48,101.84,20.32,97.93,20.32z M97.93,95.09H27.19V37.41h70.83L97.93,95.09z"/>
	<polygon class="st1" points="45.22,77.02 41.84,86.82 51.64,83.44 58.92,76.16 52.46,69.78 	"/>
</g>
</svg>
